<svg width="3204" height="753" version="1.1" viewBox="0 0 848 199" xmlns="http://www.w3.org/2000/svg">
 <g transform="translate(767 141)">
  <rect x="-767" y="-141" width="848" height="199" fill="#1c3d6c" fill-opacity=".19" stroke-linecap="round" stroke-linejoin="round" stroke-opacity=".98" stroke-width="2.9" style="paint-order:markers fill stroke"/>
  <g transform="matrix(4.4 0 0 4.4 -929 -93)" fill="#fff">
   <circle cx="53" cy="11" r="7.4" style="paint-order:markers fill stroke"/>
   <circle cx="62" cy="6.4" r="7.2" style="paint-order:markers fill stroke"/>
   <circle cx="69" cy="11" r="7.2" style="paint-order:markers fill stroke"/>
   <circle cx="60" cy="12" r="7.2" style="paint-order:markers fill stroke"/>
  </g>
  <g transform="matrix(4.4 0 0 4.4 -176 -178)" fill="#96accc" fill-opacity=".99" stroke-width=".58">
   <circle cx="-84" cy="43" r="4.3" style="paint-order:markers fill stroke"/>
   <circle cx="-78" cy="41" r="4.2" style="paint-order:markers fill stroke"/>
   <circle cx="-74" cy="44" r="4.2" style="paint-order:markers fill stroke"/>
   <circle cx="-79" cy="44" r="4.2" style="paint-order:markers fill stroke"/>
  </g>
  <g transform="matrix(4.9 0 0 4.9 -735 -122)" fill="#edf2eb">
   <circle cx="53" cy="11" r="7.4" style="paint-order:markers fill stroke"/>
   <circle cx="62" cy="6.4" r="7.2" style="paint-order:markers fill stroke"/>
   <circle cx="69" cy="11" r="7.2" style="paint-order:markers fill stroke"/>
   <circle cx="60" cy="12" r="7.2" style="paint-order:markers fill stroke"/>
  </g>
  <g transform="matrix(4.4 0 0 4.4 333 -234)" fill="#b1bdd0" fill-opacity=".99" stroke-width=".58">
   <circle cx="-84" cy="43" r="4.3" style="paint-order:markers fill stroke"/>
   <circle cx="-78" cy="41" r="4.2" style="paint-order:markers fill stroke"/>
   <circle cx="-74" cy="44" r="4.2" style="paint-order:markers fill stroke"/>
   <circle cx="-79" cy="44" r="4.2" style="paint-order:markers fill stroke"/>
  </g>
  <g transform="matrix(4.4 0 0 4.4 -366 -111)" fill="#f5efef">
   <circle cx="53" cy="11" r="7.4" style="paint-order:markers fill stroke"/>
   <circle cx="62" cy="6.4" r="7.2" style="paint-order:markers fill stroke"/>
   <circle cx="69" cy="11" r="7.2" style="paint-order:markers fill stroke"/>
   <circle cx="60" cy="12" r="7.2" style="paint-order:markers fill stroke"/>
  </g>
  <g transform="matrix(3.9 0 0 3.9 -513 -38)" fill="#e3e4ff">
   <circle cx="53" cy="11" r="7.4" style="paint-order:markers fill stroke"/>
   <circle cx="62" cy="6.4" r="7.2" style="paint-order:markers fill stroke"/>
   <circle cx="69" cy="11" r="7.2" style="paint-order:markers fill stroke"/>
   <circle cx="60" cy="12" r="7.2" style="paint-order:markers fill stroke"/>
  </g>
  <g transform="matrix(4.4 0 0 4.4 110 -286)" fill="#b7d0f5" fill-opacity=".99" stroke-width=".58">
   <circle cx="-84" cy="43" r="4.3" style="paint-order:markers fill stroke"/>
   <circle cx="-78" cy="41" r="4.2" style="paint-order:markers fill stroke"/>
   <circle cx="-74" cy="44" r="4.2" style="paint-order:markers fill stroke"/>
   <circle cx="-79" cy="44" r="4.2" style="paint-order:markers fill stroke"/>
  </g>
  <g transform="matrix(4.4 0 0 4.4 -361 -198)" fill="#aab3c0" fill-opacity=".99" stroke-width=".58">
   <circle cx="-84" cy="43" r="4.3" style="paint-order:markers fill stroke"/>
   <circle cx="-78" cy="41" r="4.2" style="paint-order:markers fill stroke"/>
   <circle cx="-74" cy="44" r="4.2" style="paint-order:markers fill stroke"/>
   <circle cx="-79" cy="44" r="4.2" style="paint-order:markers fill stroke"/>
  </g>
  <g transform="matrix(6.1 0 0 6.1 237 -355)" fill="#a5bada" fill-opacity=".99" stroke-width=".58">
   <circle cx="-84" cy="43" r="4.3" style="paint-order:markers fill stroke"/>
   <circle cx="-78" cy="41" r="4.2" style="paint-order:markers fill stroke"/>
   <circle cx="-74" cy="44" r="4.2" style="paint-order:markers fill stroke"/>
   <circle cx="-79" cy="44" r="4.2" style="paint-order:markers fill stroke"/>
  </g>
 </g>
</svg>
