<svg width="42.866mm" height="28.575mm" version="1.1" viewBox="0 0 42.866 28.575" xmlns="http://www.w3.org/2000/svg">
 <g transform="translate(-137.109 -249.086)">
  <rect x="7.7361" y="3.94162" width="201.934" height="206.782" style="fill:#003380;paint-order:markers fill stroke;stroke-linecap:round;stroke-linejoin:round;stroke-opacity:.980392"/>
  <path d="m89.5176 95.805c-7.01991-2e-3 -14.1187 0.27117-16.1592 0.82063-1.41621 0.38135-3.19702 2.15183-3.57187 3.55068-0.90176 3.36515-1.07718 14.4232-0.29353 18.5162 0.75702 3.95377 2.43674 5.03341 8.59173 5.52162 2.74929 0.21807 23.8761-0.0656 25.6646-0.34468 3.31888-0.51779 4.84535-2.14913 5.4715-5.84824 0.43477-2.56839 0.43509-13.2192 5.1e-4 -15.8207-0.53477-3.20118-1.71052-4.82998-4.01681-5.56552-1.72608-0.5506-8.66699-0.82796-15.6869-0.82995zm-4.26693 8.46772c0.28278 0 10.1642 5.66139 10.1642 5.8234 0 0.0877-1.81569 1.19409-4.03489 2.45877-2.21919 1.26466-4.54092 2.60403-5.15938 2.97656l-1.12448 0.67747v-5.9681c0-3.28248 0.0697-5.9681 0.15451-5.9681z" style="fill:#fff;stroke-width:.264583"/>
  <path d="m113.821 143.542c-1.70782-1.04132-1.66659-0.6402-1.6655-16.2033 9.5e-4 -13.5201 0.0223-14.1372 0.51747-14.9492 1.04097-1.70725 0.64595-1.66649 16.1503-1.66649 15.5044 0 15.1093-0.0408 16.1503 1.66649 0.49516 0.81209 0.51652 1.42917 0.51746 14.9492 1e-3 15.5631 0.0423 15.162-1.6655 16.2033-0.7698 0.46938-1.3598 0.51657-6.46945 0.51747l-5.62239 9.9e-4v-11.3771h2.11163c1.97562 0 2.11984-0.0383 2.23928-0.59532 0.13013-0.60688 0.67617-4.28006 0.67617-4.54859 0-0.0813-1.13109-0.14776-2.51354-0.14776h-2.51354v-2.36649c0-2.11432 0.0674-2.44491 0.63289-3.10227 0.56938-0.66195 0.83487-0.74598 2.64583-0.83743l2.01295-0.10165v-4.37393l-0.82683-0.16536c-1.53522-0.30705-4.90726-0.1725-6.08424 0.24276-1.46571 0.51713-2.79173 1.76966-3.48942 3.29604-0.41908 0.91682-0.57102 1.90556-0.66073 4.29948l-0.11651 3.10885h-4.43269v5.29167h4.49792v11.3771l-5.6224-1e-3c-5.10965-7.9e-4 -5.69964-0.0481-6.46945-0.51747z" style="fill:#fff;stroke-width:.264583"/>
  <path d="m139.208 277.06c-0.491-0.33088-1.16346-1.00334-1.49434-1.49434l-0.60161-0.89272v-11.0734c0-13.0519-0.22739-12.1317 2.998-12.1317 1.80516 0 1.96455-0.0465 2.29851-0.6705 0.19736-0.36877 0.73755-0.90455 1.20042-1.19062 0.81414-0.50317 1.40325-0.52013 18.0744-0.52013 16.8801 0 17.2437 0.0108 17.762 0.52917 0.51506 0.51506 0.52917 0.88195 0.52917 13.7583 0 12.8764-0.0141 13.2433-0.52917 13.7583-0.51955 0.51955-0.88194 0.52917-19.9369 0.52917h-19.4078zm2.60379-12.565c0.0685-9.1894 0.0619-9.32301-0.46302-9.32301-0.5237 0-0.53255 0.15645-0.53255 9.41211 0 8.82147 0.0291 9.40652 0.46302 9.32301 0.42894-0.0825 0.46814-0.77532 0.53255-9.41211zm34.4586-1.12093v-10.5833h-30.6917v21.1667h30.6917zm-27.0707 6.97239c-0.3085-0.30851-0.19968-2.87953 0.13609-3.2153 0.49777-0.49777 10.8894-0.44456 11.3063 0.0579 0.17947 0.21625 0.27734 0.97338 0.23084 1.78593l-0.0807 1.41055-5.70557 0.0712c-3.13806 0.0391-5.7872-0.0105-5.88698-0.11025zm14.2885 1e-3c-0.30926-0.30932-0.2013-2.87998 0.13508-3.21636 0.21994-0.21994 1.59206-0.3175 4.46552-0.3175 4.79191 0 4.81353 0.01 4.69042 2.16133l-0.0807 1.41054-4.51394 0.0722c-2.48267 0.0397-4.59603-0.01-4.69636-0.11024zm-14.3511-5.45806c-0.0732-0.19086-0.10017-2.18749-0.0598-4.43695l0.0733-4.08993h11.6417v8.73125l-5.761 0.0713c-4.56002 0.0565-5.78877-1e-3 -5.89417-0.2757zm8.74475-4.16126v-1.45521h-5.82083l-0.0828 1.15475c-0.13779 1.9207-0.14688 1.91526 3.05455 1.83082l2.84912-0.0752zm5.60638 4.32756c-0.30926-0.30926-0.2013-2.87993 0.13508-3.21631 0.21994-0.21994 1.59206-0.3175 4.46552-0.3175 4.79191 0 4.81353 0.01 4.69042 2.16133l-0.0807 1.41055-4.51394 0.0722c-2.48267 0.0397-4.59603-0.01-4.69636-0.11025zm0.1-5.49671c-0.17947-0.21625-0.27733-0.97338-0.23083-1.78593l0.0807-1.41054h9.26043l0.0807 1.41054c0.12317 2.15244 0.1038 2.16133-4.71094 2.16133-3.27659 0-4.2352-0.0803-4.48009-0.3754z" style="fill:#fff;stroke-width:.264583"/>
  <path d="m150.922 175.056c-1.68374-1.02664-1.66659-0.8843-1.6655-13.822 9.5e-4 -11.1583 0.0258-11.7616 0.51747-12.568 1.05215-1.72559 0.39385-1.6666 18.5846-1.6655 15.8818 1e-3 16.5144 0.0198 17.3305 0.51746 1.68297 1.02617 1.66649 0.88997 1.66649 13.769 0 12.8791 0.0165 12.7429-1.66649 13.769-0.81626 0.4977-1.44816 0.51648-17.3835 0.51648s-16.5672-0.0188-17.3835-0.51648zm32.7293-9.95537v-6.76965l-1.78593 1.40256c-0.98227 0.77141-3.30782 2.62828-5.1679 4.12637-4.37289 3.5219-5.80239 4.32918-7.97461 4.50355-1.4181 0.11383-1.89758 0.0313-3.09809-0.53355-0.78119-0.36752-1.79822-0.94824-2.26007-1.29048-0.90833-0.67311-7.44782-5.82697-9.28058-7.31417l-1.12448-0.91246v13.5575h30.6917zm-13.2148-1.12069c0.64696-0.41063 3.03044-2.22633 5.29663-4.03489 2.26619-1.80857 4.97019-3.94314 6.00889-4.74351l1.88854-1.45521 0.0104-1.52135 0.0104-1.52136h-30.6917l0.0104 1.52136 0.0104 1.52135 1.88854 1.45521c1.0387 0.80037 3.7427 2.93494 6.00889 4.74351 5.12712 4.09176 6.19855 4.78149 7.42764 4.78149 0.59312 0 1.40026-0.28278 2.13101-0.7466z" style="fill:#fff;stroke-width:.264583"/>
 </g>
</svg>
