<svg width="38mm" height="29mm" version="1.1" viewBox="0 0 38 29" xmlns="http://www.w3.org/2000/svg">
 <g transform="translate(-146 -247)">
  <rect x="7.7" y="3.9" width="202" height="207" fill="#003380" stroke-linecap="round" stroke-linejoin="round" stroke-opacity=".98" style="paint-order:markers fill stroke"/>
  <g fill="#fff" stroke-width=".26">
   <path d="m137 72c-7-2e-3 -14 0.27-16 0.82-1.4 0.38-3.2 2.2-3.6 3.6-0.9 3.4-1.1 14-0.29 19 0.76 4 2.4 5 8.6 5.5 2.7 0.22 24-0.066 26-0.34 3.3-0.52 4.8-2.1 5.5-5.8 0.43-2.6 0.44-13 5.1e-4 -16-0.53-3.2-1.7-4.8-4-5.6-1.7-0.55-8.7-0.83-16-0.83zm-4.3 8.5c0.28 0 10 5.7 10 5.8 0 0.088-1.8 1.2-4 2.5-2.2 1.3-4.5 2.6-5.2 3l-1.1 0.68v-6c0-3.3 0.07-6 0.15-6z"/>
   <path d="m114 144c-1.7-1-1.7-0.64-1.7-16 9.5e-4 -14 0.022-14 0.52-15 1-1.7 0.65-1.7 16-1.7 16 0 15-0.041 16 1.7 0.5 0.81 0.52 1.4 0.52 15 1e-3 16 0.042 15-1.7 16-0.77 0.47-1.4 0.52-6.5 0.52l-5.6 9.9e-4v-11h2.1c2 0 2.1-0.038 2.2-0.6 0.13-0.61 0.68-4.3 0.68-4.5 0-0.081-1.1-0.15-2.5-0.15h-2.5v-2.4c0-2.1 0.067-2.4 0.63-3.1 0.57-0.66 0.83-0.75 2.6-0.84l2-0.1v-4.4l-0.83-0.17c-1.5-0.31-4.9-0.17-6.1 0.24-1.5 0.52-2.8 1.8-3.5 3.3-0.42 0.92-0.57 1.9-0.66 4.3l-0.12 3.1h-4.4v5.3h4.5v11l-5.6-1e-3c-5.1-7.9e-4 -5.7-0.048-6.5-0.52z"/>
   <path d="m49 174c-0.49-0.33-1.2-1-1.5-1.5l-0.6-0.89v-11c0-13-0.23-12 3-12 1.8 0 2-0.046 2.3-0.67 0.2-0.37 0.74-0.9 1.2-1.2 0.81-0.5 1.4-0.52 18-0.52 17 0 17 0.011 18 0.53 0.52 0.52 0.53 0.88 0.53 14 0 13-0.014 13-0.53 14-0.52 0.52-0.88 0.53-20 0.53h-19zm2.6-13c0.068-9.2 0.062-9.3-0.46-9.3-0.52 0-0.53 0.16-0.53 9.4 0 8.8 0.029 9.4 0.46 9.3 0.43-0.082 0.47-0.78 0.53-9.4zm34-1.1v-11h-31v21h31zm-27 7c-0.31-0.31-0.2-2.9 0.14-3.2 0.5-0.5 11-0.44 11 0.058 0.18 0.22 0.28 0.97 0.23 1.8l-0.081 1.4-5.7 0.071c-3.1 0.039-5.8-0.01-5.9-0.11zm14 1e-3c-0.31-0.31-0.2-2.9 0.14-3.2 0.22-0.22 1.6-0.32 4.5-0.32 4.8 0 4.8 0.01 4.7 2.2l-0.081 1.4-4.5 0.072c-2.5 0.04-4.6-0.01-4.7-0.11zm-14-5.5c-0.073-0.19-0.1-2.2-0.06-4.4l0.073-4.1h12v8.7l-5.8 0.071c-4.6 0.056-5.8-1e-3 -5.9-0.28zm8.7-4.2v-1.5h-5.8l-0.083 1.2c-0.14 1.9-0.15 1.9 3.1 1.8l2.8-0.075zm5.6 4.3c-0.31-0.31-0.2-2.9 0.14-3.2 0.22-0.22 1.6-0.32 4.5-0.32 4.8 0 4.8 0.01 4.7 2.2l-0.081 1.4-4.5 0.072c-2.5 0.04-4.6-0.01-4.7-0.11zm0.1-5.5c-0.18-0.22-0.28-0.97-0.23-1.8l0.081-1.4h9.3l0.081 1.4c0.12 2.2 0.1 2.2-4.7 2.2-3.3 0-4.2-0.08-4.5-0.38z"/>
   <path d="m148 276c-1.7-1-1.7-0.88-1.7-14 9.5e-4 -11 0.026-12 0.52-13 1.1-1.7 0.39-1.7 19-1.7 16 1e-3 17 0.02 17 0.52 1.7 1 1.7 0.89 1.7 14 0 13 0.016 13-1.7 14-0.82 0.5-1.4 0.52-17 0.52s-17-0.019-17-0.52zm33-10v-6.8l-1.8 1.4c-0.98 0.77-3.3 2.6-5.2 4.1-4.4 3.5-5.8 4.3-8 4.5-1.4 0.11-1.9 0.031-3.1-0.53-0.78-0.37-1.8-0.95-2.3-1.3-0.91-0.67-7.4-5.8-9.3-7.3l-1.1-0.91v14h31zm-13-1.1c0.65-0.41 3-2.2 5.3-4 2.3-1.8 5-3.9 6-4.7l1.9-1.5 0.021-3h-31l0.021 3 1.9 1.5c1 0.8 3.7 2.9 6 4.7 5.1 4.1 6.2 4.8 7.4 4.8 0.59 0 1.4-0.28 2.1-0.75z"/>
  </g>
 </g>
</svg>
