<svg width="40.55mm" height="28.49mm" version="1.1" viewBox="0 0 40.55 28.49" xmlns="http://www.w3.org/2000/svg">
 <g transform="translate(-143.6 -254.8)">
  <rect x="7.736" y="3.942" width="201.9" height="206.8" fill="#003380" stroke-linecap="round" stroke-linejoin="round" stroke-opacity=".9804" style="paint-order:markers fill stroke"/>
  <g fill="#fff" stroke-width=".2646">
   <path d="m164.1 254.8c-7.02-2e-3 -14.12 0.2712-16.16 0.8206-1.416 0.3814-3.197 2.152-3.572 3.551-0.9018 3.365-1.077 14.42-0.2935 18.52 0.757 3.954 2.437 5.033 8.592 5.522 2.749 0.2181 23.88-0.0656 25.66-0.3447 3.319-0.5178 4.845-2.149 5.472-5.848 0.4348-2.568 0.4351-13.22 5.1e-4 -15.82-0.5348-3.201-1.711-4.83-4.017-5.566-1.726-0.5506-8.667-0.828-15.69-0.83zm-4.267 8.468c0.2828 0 10.16 5.661 10.16 5.823 0 0.0877-1.816 1.194-4.035 2.459-2.219 1.265-4.541 2.604-5.159 2.977l-1.124 0.6775v-5.968c0-3.282 0.0697-5.968 0.1545-5.968z"/>
   <path d="m113.8 143.5c-1.708-1.041-1.667-0.6402-1.666-16.2 9.5e-4 -13.52 0.0223-14.14 0.5175-14.95 1.041-1.707 0.646-1.666 16.15-1.666 15.5 0 15.11-0.0408 16.15 1.666 0.4952 0.8121 0.5165 1.429 0.5175 14.95 1e-3 15.56 0.0423 15.16-1.666 16.2-0.7698 0.4694-1.36 0.5166-6.469 0.5175l-5.622 9.9e-4v-11.38h2.112c1.976 0 2.12-0.0383 2.239-0.5953 0.1301-0.6069 0.6762-4.28 0.6762-4.549 0-0.0813-1.131-0.1478-2.514-0.1478h-2.514v-2.366c0-2.114 0.0674-2.445 0.6329-3.102 0.5694-0.662 0.8349-0.746 2.646-0.8374l2.013-0.1016v-4.374l-0.8268-0.1654c-1.535-0.307-4.907-0.1725-6.084 0.2428-1.466 0.5171-2.792 1.77-3.489 3.296-0.4191 0.9168-0.571 1.906-0.6607 4.299l-0.1165 3.109h-4.433v5.292h4.498v11.38l-5.622-1e-3c-5.11-7.9e-4 -5.7-0.0481-6.469-0.5175z"/>
   <path d="m71.12 185c-0.491-0.3309-1.163-1.003-1.494-1.494l-0.6016-0.8927v-11.07c0-13.05-0.2274-12.13 2.998-12.13 1.805 0 1.965-0.0465 2.299-0.6705 0.1974-0.3688 0.7376-0.9046 1.2-1.191 0.8141-0.5032 1.403-0.5201 18.07-0.5201 16.88 0 17.24 0.0108 17.76 0.5292 0.5151 0.5151 0.5292 0.882 0.5292 13.76 0 12.88-0.0141 13.24-0.5292 13.76-0.5196 0.5196-0.8819 0.5292-19.94 0.5292h-19.41zm2.604-12.56c0.0685-9.189 0.0619-9.323-0.463-9.323-0.5237 0-0.5326 0.1564-0.5326 9.412 0 8.821 0.0291 9.407 0.463 9.323 0.4289-0.0825 0.4681-0.7753 0.5326-9.412zm34.46-1.121v-10.58h-30.69v21.17h30.69zm-27.07 6.972c-0.3085-0.3085-0.1997-2.88 0.1361-3.215 0.4978-0.4978 10.89-0.4446 11.31 0.0579 0.1795 0.2162 0.2773 0.9734 0.2308 1.786l-0.0807 1.411-5.706 0.0712c-3.138 0.0391-5.787-0.0105-5.887-0.1102zm14.29 1e-3c-0.3093-0.3093-0.2013-2.88 0.1351-3.216 0.2199-0.2199 1.592-0.3175 4.466-0.3175 4.792 0 4.814 0.01 4.69 2.161l-0.0807 1.411-4.514 0.0722c-2.483 0.0397-4.596-0.01-4.696-0.1102zm-14.35-5.458c-0.0732-0.1909-0.1002-2.187-0.0598-4.437l0.0733-4.09h11.64v8.731l-5.761 0.0713c-4.56 0.0565-5.789-1e-3 -5.894-0.2757zm8.745-4.161v-1.455h-5.821l-0.0828 1.155c-0.1378 1.921-0.1469 1.915 3.055 1.831l2.849-0.0752zm5.606 4.328c-0.3093-0.3093-0.2013-2.88 0.1351-3.216 0.2199-0.2199 1.592-0.3175 4.466-0.3175 4.792 0 4.814 0.01 4.69 2.161l-0.0807 1.411-4.514 0.0722c-2.483 0.0397-4.596-0.01-4.696-0.1102zm0.1-5.497c-0.1795-0.2162-0.2773-0.9734-0.2308-1.786l0.0807-1.411h9.26l0.0807 1.411c0.1232 2.152 0.1038 2.161-4.711 2.161-3.277 0-4.235-0.0803-4.48-0.3754z"/>
   <path d="m150.9 175.1c-1.684-1.027-1.667-0.8843-1.666-13.82 9.5e-4 -11.16 0.0258-11.76 0.5175-12.57 1.052-1.726 0.3938-1.667 18.58-1.666 15.88 1e-3 16.51 0.0198 17.33 0.5175 1.683 1.026 1.666 0.89 1.666 13.77 0 12.88 0.0165 12.74-1.666 13.77-0.8163 0.4977-1.448 0.5165-17.38 0.5165s-16.57-0.0188-17.38-0.5165zm32.73-9.955v-6.77l-1.786 1.403c-0.9823 0.7714-3.308 2.628-5.168 4.126-4.373 3.522-5.802 4.329-7.975 4.504-1.418 0.1138-1.898 0.0313-3.098-0.5336-0.7812-0.3675-1.798-0.9482-2.26-1.29-0.9083-0.6731-7.448-5.827-9.281-7.314l-1.124-0.9125v13.56h30.69zm-13.21-1.121c0.647-0.4106 3.03-2.226 5.297-4.035 2.266-1.809 4.97-3.943 6.009-4.744l1.889-1.455 0.0104-1.521 0.0104-1.521h-30.69l0.0104 1.521 0.0104 1.521 1.889 1.455c1.039 0.8004 3.743 2.935 6.009 4.744 5.127 4.092 6.199 4.781 7.428 4.781 0.5931 0 1.4-0.2828 2.131-0.7466z"/>
  </g>
 </g>
</svg>
